<!DOCTYPE svg PUBLIC "-//W3C//DTD SVG 1.1//EN" "http://www.w3.org/Graphics/SVG/1.1/DTD/svg11.dtd">
<svg xmlns="http://www.w3.org/2000/svg" xmlns:xlink="http://www.w3.org/1999/xlink" version="1.1" width="601px" height="459px" viewBox="-0.5 -0.5 601 459"><defs><clipPath id="mx-clip-0-396-30-30-0"><rect x="0" y="396" width="30" height="30"/></clipPath><clipPath id="mx-clip-36-396-203-30-0"><rect x="36" y="396" width="203" height="30"/></clipPath><clipPath id="mx-clip-36-426-203-30-0"><rect x="36" y="426" width="203" height="30"/></clipPath><clipPath id="mx-clip-347-276-30-30-0"><rect x="347" y="276" width="30" height="30"/></clipPath><clipPath id="mx-clip-383-276-188-30-0"><rect x="383" y="276" width="188" height="30"/></clipPath><clipPath id="mx-clip-383-306-188-30-0"><rect x="383" y="306" width="188" height="30"/></clipPath><clipPath id="mx-clip-347-336-30-30-0"><rect x="347" y="336" width="30" height="30"/></clipPath><clipPath id="mx-clip-383-336-188-30-0"><rect x="383" y="336" width="188" height="30"/></clipPath><clipPath id="mx-clip-383-366-188-30-0"><rect x="383" y="366" width="188" height="30"/></clipPath><clipPath id="mx-clip-383-396-188-30-0"><rect x="383" y="396" width="188" height="30"/></clipPath><clipPath id="mx-clip-319-30-30-30-0"><rect x="319" y="30" width="30" height="30"/></clipPath><clipPath id="mx-clip-355-30-244-30-0"><rect x="355" y="30" width="244" height="30"/></clipPath><clipPath id="mx-clip-355-60-244-30-0"><rect x="355" y="60" width="244" height="30"/></clipPath><clipPath id="mx-clip-355-90-244-30-0"><rect x="355" y="90" width="244" height="30"/></clipPath><clipPath id="mx-clip-0-190-30-30-0"><rect x="0" y="190" width="30" height="30"/></clipPath><clipPath id="mx-clip-36-190-190-30-0"><rect x="36" y="190" width="190" height="30"/></clipPath><clipPath id="mx-clip-0-220-30-30-0"><rect x="0" y="220" width="30" height="30"/></clipPath><clipPath id="mx-clip-36-220-190-30-0"><rect x="36" y="220" width="190" height="30"/></clipPath><clipPath id="mx-clip-36-250-190-30-0"><rect x="36" y="250" width="190" height="30"/></clipPath></defs><g><path d="M 0 396 L 0 366 L 239 366 L 239 396" fill="rgb(255, 255, 255)" stroke="rgb(0, 0, 0)" stroke-miterlimit="10" pointer-events="all"/><path d="M 0 396 L 0 457 L 239 457 L 239 396" fill="none" stroke="rgb(0, 0, 0)" stroke-miterlimit="10" pointer-events="none"/><path d="M 0 396 L 239 396" fill="none" stroke="rgb(0, 0, 0)" stroke-miterlimit="10" pointer-events="none"/><path d="M 30 396 L 30 426 L 30 456" fill="none" stroke="rgb(0, 0, 0)" stroke-miterlimit="10" pointer-events="none"/><g fill="rgb(0, 0, 0)" font-family="Helvetica" font-weight="bold" pointer-events="none" text-anchor="middle" font-size="12px"><text x="119" y="385.5">Type</text></g><rect x="0" y="396" width="239" height="30" fill="none" stroke="rgb(0, 0, 0)" pointer-events="none"/><rect x="0" y="396" width="30" height="30" fill="rgb(255, 255, 255)" stroke="none" pointer-events="none"/><path d="M 0 396 M 30 396 M 30 426 M 0 426" fill="none" stroke="rgb(0, 0, 0)" stroke-linecap="square" stroke-miterlimit="10" pointer-events="none"/><g fill="rgb(0, 0, 0)" font-family="Helvetica" font-weight="bold" pointer-events="none" clip-path="url(#mx-clip-0-396-30-30-0)" text-anchor="middle" font-size="12px"><text x="14.5" y="415.5">PK</text></g><rect x="30" y="396" width="209" height="30" fill="rgb(255, 255, 255)" stroke="none" pointer-events="none"/><path d="M 30 396 M 239 396 M 239 426 M 30 426" fill="none" stroke="rgb(0, 0, 0)" stroke-linecap="square" stroke-miterlimit="10" pointer-events="none"/><g fill="rgb(0, 0, 0)" font-family="Helvetica" font-weight="bold" text-decoration="underline" pointer-events="none" clip-path="url(#mx-clip-36-396-203-30-0)" font-size="12px"><text x="37.5" y="415.5">TypeID INT NOT NULL</text></g><rect x="0" y="426" width="239" height="30" fill="none" stroke="rgb(0, 0, 0)" pointer-events="none"/><rect x="0" y="426" width="30" height="30" fill="rgb(255, 255, 255)" stroke="none" pointer-events="none"/><path d="M 0 426 M 30 426 M 30 456 M 0 456" fill="none" stroke="rgb(0, 0, 0)" stroke-linecap="square" stroke-miterlimit="10" pointer-events="none"/><rect x="30" y="426" width="209" height="30" fill="rgb(255, 255, 255)" stroke="none" pointer-events="none"/><path d="M 30 426 M 239 426 M 239 456 M 30 456" fill="none" stroke="rgb(0, 0, 0)" stroke-linecap="square" stroke-miterlimit="10" pointer-events="none"/><g fill="rgb(0, 0, 0)" font-family="Helvetica" pointer-events="none" clip-path="url(#mx-clip-36-426-203-30-0)" font-size="12px"><text x="37.5" y="445.5">MealType VARCHAR(32) NOT NULL</text></g><path d="M 347.13 276 L 347.13 246 L 570.88 246 L 570.88 276" fill="rgb(255, 255, 255)" stroke="rgb(0, 0, 0)" stroke-miterlimit="10" pointer-events="none"/><path d="M 347.13 276 L 347.13 426 L 570.88 426 L 570.88 276" fill="none" stroke="rgb(0, 0, 0)" stroke-miterlimit="10" pointer-events="none"/><path d="M 347.13 276 L 570.88 276" fill="none" stroke="rgb(0, 0, 0)" stroke-miterlimit="10" pointer-events="none"/><path d="M 377.13 276 L 377.13 306 L 377.13 336 L 377.13 366 L 377.13 396 L 377.13 426" fill="none" stroke="rgb(0, 0, 0)" stroke-miterlimit="10" pointer-events="none"/><g fill="rgb(0, 0, 0)" font-family="Helvetica" font-weight="bold" pointer-events="none" text-anchor="middle" font-size="12px"><text x="458.5" y="265.5">Recipe</text></g><rect x="347.13" y="276" width="223.75" height="30" fill="none" stroke="rgb(0, 0, 0)" pointer-events="none"/><rect x="347.13" y="276" width="30" height="30" fill="rgb(255, 255, 255)" stroke="none" pointer-events="none"/><path d="M 347.13 276 M 377.13 276 M 377.13 306 M 347.13 306" fill="none" stroke="rgb(0, 0, 0)" stroke-linecap="square" stroke-miterlimit="10" pointer-events="none"/><g fill="rgb(0, 0, 0)" font-family="Helvetica" font-weight="bold" pointer-events="none" clip-path="url(#mx-clip-347-276-30-30-0)" text-anchor="middle" font-size="12px"><text x="361.63" y="295.5">PK</text></g><rect x="377.13" y="276" width="193.75" height="30" fill="rgb(255, 255, 255)" stroke="none" pointer-events="none"/><path d="M 377.13 276 M 570.88 276 M 570.88 306 M 377.13 306" fill="none" stroke="rgb(0, 0, 0)" stroke-linecap="square" stroke-miterlimit="10" pointer-events="none"/><g fill="rgb(0, 0, 0)" font-family="Helvetica" font-weight="bold" text-decoration="underline" pointer-events="none" clip-path="url(#mx-clip-383-276-188-30-0)" font-size="12px"><text x="384.63" y="295.5">RecipeID INT NOT NULL</text></g><rect x="347.13" y="306" width="223.75" height="30" fill="none" stroke="rgb(0, 0, 0)" pointer-events="none"/><rect x="347.13" y="306" width="30" height="30" fill="rgb(255, 255, 255)" stroke="none" pointer-events="none"/><path d="M 347.13 306 M 377.13 306 M 377.13 336 M 347.13 336" fill="none" stroke="rgb(0, 0, 0)" stroke-linecap="square" stroke-miterlimit="10" pointer-events="none"/><rect x="377.13" y="306" width="193.75" height="30" fill="rgb(255, 255, 255)" stroke="none" pointer-events="none"/><path d="M 377.13 306 M 570.88 306 M 570.88 336 M 377.13 336" fill="none" stroke="rgb(0, 0, 0)" stroke-linecap="square" stroke-miterlimit="10" pointer-events="none"/><g fill="rgb(0, 0, 0)" font-family="Helvetica" pointer-events="none" clip-path="url(#mx-clip-383-306-188-30-0)" font-size="12px"><text x="384.63" y="325.5">Name VARCHAR(32) NOT NULL</text></g><rect x="347.13" y="336" width="223.75" height="30" fill="none" stroke="rgb(0, 0, 0)" pointer-events="none"/><rect x="347.13" y="336" width="30" height="30" fill="rgb(255, 255, 255)" stroke="none" pointer-events="none"/><path d="M 347.13 336 M 377.13 336 M 377.13 366 M 347.13 366" fill="none" stroke="rgb(0, 0, 0)" stroke-linecap="square" stroke-miterlimit="10" pointer-events="none"/><g fill="rgb(0, 0, 0)" font-family="Helvetica" pointer-events="none" clip-path="url(#mx-clip-347-336-30-30-0)" text-anchor="middle" font-size="12px"><text x="361.63" y="355.5">FK</text></g><rect x="377.13" y="336" width="193.75" height="30" fill="rgb(255, 255, 255)" stroke="none" pointer-events="none"/><path d="M 377.13 336 M 570.88 336 M 570.88 366 M 377.13 366" fill="none" stroke="rgb(0, 0, 0)" stroke-linecap="square" stroke-miterlimit="10" pointer-events="none"/><g fill="rgb(0, 0, 0)" font-family="Helvetica" pointer-events="none" clip-path="url(#mx-clip-383-336-188-30-0)" font-size="12px"><text x="384.63" y="355.5">Type INT NOT NULL</text></g><rect x="347.13" y="366" width="223.75" height="30" fill="none" stroke="rgb(0, 0, 0)" pointer-events="none"/><rect x="347.13" y="366" width="30" height="30" fill="rgb(255, 255, 255)" stroke="none" pointer-events="none"/><path d="M 347.13 366 M 377.13 366 M 377.13 396 M 347.13 396" fill="none" stroke="rgb(0, 0, 0)" stroke-linecap="square" stroke-miterlimit="10" pointer-events="none"/><rect x="377.13" y="366" width="193.75" height="30" fill="rgb(255, 255, 255)" stroke="none" pointer-events="none"/><path d="M 377.13 366 M 570.88 366 M 570.88 396 M 377.13 396" fill="none" stroke="rgb(0, 0, 0)" stroke-linecap="square" stroke-miterlimit="10" pointer-events="none"/><g fill="rgb(0, 0, 0)" font-family="Helvetica" pointer-events="none" clip-path="url(#mx-clip-383-366-188-30-0)" font-size="12px"><text x="384.63" y="385.5">ImageURL VARCHAR(32)</text></g><rect x="347.13" y="396" width="223.75" height="30" fill="none" stroke="rgb(0, 0, 0)" pointer-events="none"/><rect x="347.13" y="396" width="30" height="30" fill="rgb(255, 255, 255)" stroke="none" pointer-events="none"/><path d="M 347.13 396 M 377.13 396 M 377.13 426 M 347.13 426" fill="none" stroke="rgb(0, 0, 0)" stroke-linecap="square" stroke-miterlimit="10" pointer-events="none"/><rect x="377.13" y="396" width="193.75" height="30" fill="rgb(255, 255, 255)" stroke="none" pointer-events="none"/><path d="M 377.13 396 M 570.88 396 M 570.88 426 M 377.13 426" fill="none" stroke="rgb(0, 0, 0)" stroke-linecap="square" stroke-miterlimit="10" pointer-events="none"/><g fill="rgb(0, 0, 0)" font-family="Helvetica" pointer-events="none" clip-path="url(#mx-clip-383-396-188-30-0)" font-size="12px"><text x="384.63" y="415.5">Instructions VARCHAR(200)</text></g><path d="M 347.13 351 L 293.1 351 L 293.1 411 L 245.37 411" fill="none" stroke="rgb(0, 0, 0)" stroke-miterlimit="10" pointer-events="none"/><path d="M 240.12 411 L 247.12 407.5 L 245.37 411 L 247.12 414.5 Z" fill="rgb(0, 0, 0)" stroke="rgb(0, 0, 0)" stroke-miterlimit="10" pointer-events="none"/><path d="M 319 30 L 319 0 L 599 0 L 599 30" fill="rgb(255, 255, 255)" stroke="rgb(0, 0, 0)" stroke-miterlimit="10" pointer-events="none"/><path d="M 319 30 L 319 120 L 599 120 L 599 30" fill="none" stroke="rgb(0, 0, 0)" stroke-miterlimit="10" pointer-events="none"/><path d="M 319 30 L 599 30" fill="none" stroke="rgb(0, 0, 0)" stroke-miterlimit="10" pointer-events="none"/><path d="M 349 30 L 349 60 L 349 90 L 349 120" fill="none" stroke="rgb(0, 0, 0)" stroke-miterlimit="10" pointer-events="none"/><g fill="rgb(0, 0, 0)" font-family="Helvetica" font-weight="bold" pointer-events="none" text-anchor="middle" font-size="12px"><text x="458.5" y="19.5">Ingredients</text></g><rect x="319" y="30" width="280" height="30" fill="none" stroke="rgb(0, 0, 0)" pointer-events="none"/><rect x="319" y="30" width="30" height="30" fill="rgb(255, 255, 255)" stroke="none" pointer-events="none"/><path d="M 319 30 M 349 30 M 349 60 M 319 60" fill="none" stroke="rgb(0, 0, 0)" stroke-linecap="square" stroke-miterlimit="10" pointer-events="none"/><g fill="rgb(0, 0, 0)" font-family="Helvetica" font-weight="bold" pointer-events="none" clip-path="url(#mx-clip-319-30-30-30-0)" text-anchor="middle" font-size="12px"><text x="333.5" y="49.5">PK</text></g><rect x="349" y="30" width="250" height="30" fill="rgb(255, 255, 255)" stroke="none" pointer-events="none"/><path d="M 349 30 M 599 30 M 599 60 M 349 60" fill="none" stroke="rgb(0, 0, 0)" stroke-linecap="square" stroke-miterlimit="10" pointer-events="none"/><g fill="rgb(0, 0, 0)" font-family="Helvetica" font-weight="bold" text-decoration="underline" pointer-events="none" clip-path="url(#mx-clip-355-30-244-30-0)" font-size="12px"><text x="356.5" y="49.5">IngredientsID INT NOT NULL</text></g><rect x="319" y="60" width="280" height="30" fill="none" stroke="rgb(0, 0, 0)" pointer-events="none"/><rect x="319" y="60" width="30" height="30" fill="rgb(255, 255, 255)" stroke="none" pointer-events="none"/><path d="M 319 60 M 349 60 M 349 90 M 319 90" fill="none" stroke="rgb(0, 0, 0)" stroke-linecap="square" stroke-miterlimit="10" pointer-events="none"/><rect x="349" y="60" width="250" height="30" fill="rgb(255, 255, 255)" stroke="none" pointer-events="none"/><path d="M 349 60 M 599 60 M 599 90 M 349 90" fill="none" stroke="rgb(0, 0, 0)" stroke-linecap="square" stroke-miterlimit="10" pointer-events="none"/><g fill="rgb(0, 0, 0)" font-family="Helvetica" pointer-events="none" clip-path="url(#mx-clip-355-60-244-30-0)" font-size="12px"><text x="356.5" y="79.5">Name VARCHAR(32) NOT NULL</text></g><rect x="319" y="90" width="280" height="30" fill="none" stroke="rgb(0, 0, 0)" pointer-events="none"/><rect x="319" y="90" width="30" height="30" fill="rgb(255, 255, 255)" stroke="none" pointer-events="none"/><path d="M 319 90 M 349 90 M 349 120 M 319 120" fill="none" stroke="rgb(0, 0, 0)" stroke-linecap="square" stroke-miterlimit="10" pointer-events="none"/><rect x="349" y="90" width="250" height="30" fill="rgb(255, 255, 255)" stroke="none" pointer-events="none"/><path d="M 349 90 M 599 90 M 599 120 M 349 120" fill="none" stroke="rgb(0, 0, 0)" stroke-linecap="square" stroke-miterlimit="10" pointer-events="none"/><g fill="rgb(0, 0, 0)" font-family="Helvetica" pointer-events="none" clip-path="url(#mx-clip-355-90-244-30-0)" font-size="12px"><text x="356.5" y="109.5">MeasurementType VARCHAR(16) NOT NULL</text></g><path d="M 0 190 L 0 160 L 226 160 L 226 190" fill="rgb(255, 255, 255)" stroke="rgb(0, 0, 0)" stroke-miterlimit="10" pointer-events="none"/><path d="M 0 190 L 0 280 L 226 280 L 226 190" fill="none" stroke="rgb(0, 0, 0)" stroke-miterlimit="10" pointer-events="none"/><path d="M 0 190 L 226 190" fill="none" stroke="rgb(0, 0, 0)" stroke-miterlimit="10" pointer-events="none"/><path d="M 30 190 L 30 220 L 30 250 L 30 280" fill="none" stroke="rgb(0, 0, 0)" stroke-miterlimit="10" pointer-events="none"/><g fill="rgb(0, 0, 0)" font-family="Helvetica" font-weight="bold" pointer-events="none" text-anchor="middle" font-size="12px"><text x="112.5" y="179.5">Recipe_Ingredients</text></g><rect x="0" y="190" width="226" height="30" fill="none" stroke="rgb(0, 0, 0)" pointer-events="none"/><rect x="0" y="190" width="30" height="30" fill="rgb(255, 255, 255)" stroke="none" pointer-events="none"/><path d="M 0 190 M 30 190 M 30 220 M 0 220" fill="none" stroke="rgb(0, 0, 0)" stroke-linecap="square" stroke-miterlimit="10" pointer-events="none"/><g fill="rgb(0, 0, 0)" font-family="Helvetica" font-weight="bold" pointer-events="none" clip-path="url(#mx-clip-0-190-30-30-0)" text-anchor="middle" font-size="12px"><text x="14.5" y="209.5">FK</text></g><rect x="30" y="190" width="196" height="30" fill="rgb(255, 255, 255)" stroke="none" pointer-events="none"/><path d="M 30 190 M 226 190 M 226 220 M 30 220" fill="none" stroke="rgb(0, 0, 0)" stroke-linecap="square" stroke-miterlimit="10" pointer-events="none"/><g fill="rgb(0, 0, 0)" font-family="Helvetica" font-weight="bold" text-decoration="underline" pointer-events="none" clip-path="url(#mx-clip-36-190-190-30-0)" font-size="12px"><text x="37.5" y="209.5">RecipeID INT NOT NULL</text></g><rect x="0" y="220" width="226" height="30" fill="none" stroke="rgb(0, 0, 0)" pointer-events="none"/><rect x="0" y="220" width="30" height="30" fill="rgb(255, 255, 255)" stroke="none" pointer-events="none"/><path d="M 0 220 M 30 220 M 30 250 M 0 250" fill="none" stroke="rgb(0, 0, 0)" stroke-linecap="square" stroke-miterlimit="10" pointer-events="none"/><g fill="rgb(0, 0, 0)" font-family="Helvetica" font-weight="bold" pointer-events="none" clip-path="url(#mx-clip-0-220-30-30-0)" text-anchor="middle" font-size="12px"><text x="14.5" y="239.5">FK</text></g><rect x="30" y="220" width="196" height="30" fill="rgb(255, 255, 255)" stroke="none" pointer-events="none"/><path d="M 30 220 M 226 220 M 226 250 M 30 250" fill="none" stroke="rgb(0, 0, 0)" stroke-linecap="square" stroke-miterlimit="10" pointer-events="none"/><g fill="rgb(0, 0, 0)" font-family="Helvetica" font-weight="bold" text-decoration="underline" pointer-events="none" clip-path="url(#mx-clip-36-220-190-30-0)" font-size="12px"><text x="37.5" y="239.5">IngredientsID INT NOT NULL</text></g><rect x="0" y="250" width="226" height="30" fill="none" stroke="rgb(0, 0, 0)" pointer-events="none"/><rect x="0" y="250" width="30" height="30" fill="rgb(255, 255, 255)" stroke="none" pointer-events="none"/><path d="M 0 250 M 30 250 M 30 280 M 0 280" fill="none" stroke="rgb(0, 0, 0)" stroke-linecap="square" stroke-miterlimit="10" pointer-events="none"/><rect x="30" y="250" width="196" height="30" fill="rgb(255, 255, 255)" stroke="none" pointer-events="none"/><path d="M 30 250 M 226 250 M 226 280 M 30 280" fill="none" stroke="rgb(0, 0, 0)" stroke-linecap="square" stroke-miterlimit="10" pointer-events="none"/><g fill="rgb(0, 0, 0)" font-family="Helvetica" pointer-events="none" clip-path="url(#mx-clip-36-250-190-30-0)" font-size="12px"><text x="37.5" y="269.5">Quantity DOUBLE NOT NULL</text></g><path d="M 226 235 L 286.6 235 L 286.6 291 L 340.76 291" fill="none" stroke="rgb(0, 0, 0)" stroke-miterlimit="10" pointer-events="none"/><path d="M 346.01 291 L 339.01 294.5 L 340.76 291 L 339.01 287.5 Z" fill="rgb(0, 0, 0)" stroke="rgb(0, 0, 0)" stroke-miterlimit="10" pointer-events="none"/><path d="M 226 205 L 272.5 205 L 272.5 45 L 312.63 45" fill="none" stroke="rgb(0, 0, 0)" stroke-miterlimit="10" pointer-events="none"/><path d="M 317.88 45 L 310.88 48.5 L 312.63 45 L 310.88 41.5 Z" fill="rgb(0, 0, 0)" stroke="rgb(0, 0, 0)" stroke-miterlimit="10" pointer-events="none"/></g></svg>