<!DOCTYPE svg PUBLIC "-//W3C//DTD SVG 1.1//EN" "http://www.w3.org/Graphics/SVG/1.1/DTD/svg11.dtd">
<svg xmlns="http://www.w3.org/2000/svg" xmlns:xlink="http://www.w3.org/1999/xlink" version="1.1" width="602px" height="459px" viewBox="-0.5 -0.5 602 459"><defs><clipPath id="mx-clip-1-396-30-30-0"><rect x="1" y="396" width="30" height="30"/></clipPath><clipPath id="mx-clip-37-396-203-30-0"><rect x="37" y="396" width="203" height="30"/></clipPath><clipPath id="mx-clip-37-426-203-30-0"><rect x="37" y="426" width="203" height="30"/></clipPath><clipPath id="mx-clip-348-276-30-30-0"><rect x="348" y="276" width="30" height="30"/></clipPath><clipPath id="mx-clip-384-276-188-30-0"><rect x="384" y="276" width="188" height="30"/></clipPath><clipPath id="mx-clip-384-306-188-30-0"><rect x="384" y="306" width="188" height="30"/></clipPath><clipPath id="mx-clip-348-336-30-30-0"><rect x="348" y="336" width="30" height="30"/></clipPath><clipPath id="mx-clip-384-336-188-30-0"><rect x="384" y="336" width="188" height="30"/></clipPath><clipPath id="mx-clip-384-366-188-30-0"><rect x="384" y="366" width="188" height="30"/></clipPath><clipPath id="mx-clip-384-396-188-30-0"><rect x="384" y="396" width="188" height="30"/></clipPath><clipPath id="mx-clip-320-30-30-30-0"><rect x="320" y="30" width="30" height="30"/></clipPath><clipPath id="mx-clip-356-30-244-30-0"><rect x="356" y="30" width="244" height="30"/></clipPath><clipPath id="mx-clip-356-60-244-30-0"><rect x="356" y="60" width="244" height="30"/></clipPath><clipPath id="mx-clip-356-90-244-30-0"><rect x="356" y="90" width="244" height="30"/></clipPath><clipPath id="mx-clip-0-190-30-30-0"><rect x="0" y="190" width="30" height="30"/></clipPath><clipPath id="mx-clip-36-190-190-30-0"><rect x="36" y="190" width="190" height="30"/></clipPath><clipPath id="mx-clip-0-220-30-30-0"><rect x="0" y="220" width="30" height="30"/></clipPath><clipPath id="mx-clip-36-220-190-30-0"><rect x="36" y="220" width="190" height="30"/></clipPath><clipPath id="mx-clip-36-250-190-30-0"><rect x="36" y="250" width="190" height="30"/></clipPath></defs><g><path d="M 1 396 L 1 366 L 240 366 L 240 396" fill="rgb(255, 255, 255)" stroke="rgb(0, 0, 0)" stroke-miterlimit="10" pointer-events="all"/><path d="M 1 396 L 1 457 L 240 457 L 240 396" fill="none" stroke="rgb(0, 0, 0)" stroke-miterlimit="10" pointer-events="none"/><path d="M 1 396 L 240 396" fill="none" stroke="rgb(0, 0, 0)" stroke-miterlimit="10" pointer-events="none"/><path d="M 31 396 L 31 426 L 31 456" fill="none" stroke="rgb(0, 0, 0)" stroke-miterlimit="10" pointer-events="none"/><g fill="rgb(0, 0, 0)" font-family="Helvetica" font-weight="bold" pointer-events="none" text-anchor="middle" font-size="12px"><text x="120" y="385.5">Type</text></g><rect x="1" y="396" width="239" height="30" fill="none" stroke="rgb(0, 0, 0)" pointer-events="none"/><rect x="1" y="396" width="30" height="30" fill="rgb(255, 255, 255)" stroke="none" pointer-events="none"/><path d="M 1 396 M 31 396 M 31 426 M 1 426" fill="none" stroke="rgb(0, 0, 0)" stroke-linecap="square" stroke-miterlimit="10" pointer-events="none"/><g fill="rgb(0, 0, 0)" font-family="Helvetica" font-weight="bold" pointer-events="none" clip-path="url(#mx-clip-1-396-30-30-0)" text-anchor="middle" font-size="12px"><text x="15.5" y="415.5">PK</text></g><rect x="31" y="396" width="209" height="30" fill="rgb(255, 255, 255)" stroke="none" pointer-events="none"/><path d="M 31 396 M 240 396 M 240 426 M 31 426" fill="none" stroke="rgb(0, 0, 0)" stroke-linecap="square" stroke-miterlimit="10" pointer-events="none"/><g fill="rgb(0, 0, 0)" font-family="Helvetica" font-weight="bold" text-decoration="underline" pointer-events="none" clip-path="url(#mx-clip-37-396-203-30-0)" font-size="12px"><text x="38.5" y="415.5">TypeID INT NOT NULL</text></g><rect x="1" y="426" width="239" height="30" fill="none" stroke="rgb(0, 0, 0)" pointer-events="none"/><rect x="1" y="426" width="30" height="30" fill="rgb(255, 255, 255)" stroke="none" pointer-events="none"/><path d="M 1 426 M 31 426 M 31 456 M 1 456" fill="none" stroke="rgb(0, 0, 0)" stroke-linecap="square" stroke-miterlimit="10" pointer-events="none"/><rect x="31" y="426" width="209" height="30" fill="rgb(255, 255, 255)" stroke="none" pointer-events="none"/><path d="M 31 426 M 240 426 M 240 456 M 31 456" fill="none" stroke="rgb(0, 0, 0)" stroke-linecap="square" stroke-miterlimit="10" pointer-events="none"/><g fill="rgb(0, 0, 0)" font-family="Helvetica" pointer-events="none" clip-path="url(#mx-clip-37-426-203-30-0)" font-size="12px"><text x="38.5" y="445.5">MealType VARCHAR(32) NOT NULL</text></g><path d="M 348.13 276 L 348.13 246 L 571.88 246 L 571.88 276" fill="rgb(255, 255, 255)" stroke="rgb(0, 0, 0)" stroke-miterlimit="10" pointer-events="none"/><path d="M 348.13 276 L 348.13 426 L 571.88 426 L 571.88 276" fill="none" stroke="rgb(0, 0, 0)" stroke-miterlimit="10" pointer-events="none"/><path d="M 348.13 276 L 571.88 276" fill="none" stroke="rgb(0, 0, 0)" stroke-miterlimit="10" pointer-events="none"/><path d="M 378.13 276 L 378.13 306 L 378.13 336 L 378.13 366 L 378.13 396 L 378.13 426" fill="none" stroke="rgb(0, 0, 0)" stroke-miterlimit="10" pointer-events="none"/><g fill="rgb(0, 0, 0)" font-family="Helvetica" font-weight="bold" pointer-events="none" text-anchor="middle" font-size="12px"><text x="459.5" y="265.5">Recipe</text></g><rect x="348.13" y="276" width="223.75" height="30" fill="none" stroke="rgb(0, 0, 0)" pointer-events="none"/><rect x="348.13" y="276" width="30" height="30" fill="rgb(255, 255, 255)" stroke="none" pointer-events="none"/><path d="M 348.13 276 M 378.13 276 M 378.13 306 M 348.13 306" fill="none" stroke="rgb(0, 0, 0)" stroke-linecap="square" stroke-miterlimit="10" pointer-events="none"/><g fill="rgb(0, 0, 0)" font-family="Helvetica" font-weight="bold" pointer-events="none" clip-path="url(#mx-clip-348-276-30-30-0)" text-anchor="middle" font-size="12px"><text x="362.63" y="295.5">PK</text></g><rect x="378.13" y="276" width="193.75" height="30" fill="rgb(255, 255, 255)" stroke="none" pointer-events="none"/><path d="M 378.13 276 M 571.88 276 M 571.88 306 M 378.13 306" fill="none" stroke="rgb(0, 0, 0)" stroke-linecap="square" stroke-miterlimit="10" pointer-events="none"/><g fill="rgb(0, 0, 0)" font-family="Helvetica" font-weight="bold" text-decoration="underline" pointer-events="none" clip-path="url(#mx-clip-384-276-188-30-0)" font-size="12px"><text x="385.63" y="295.5">RecipeID INT NOT NULL</text></g><rect x="348.13" y="306" width="223.75" height="30" fill="none" stroke="rgb(0, 0, 0)" pointer-events="none"/><rect x="348.13" y="306" width="30" height="30" fill="rgb(255, 255, 255)" stroke="none" pointer-events="none"/><path d="M 348.13 306 M 378.13 306 M 378.13 336 M 348.13 336" fill="none" stroke="rgb(0, 0, 0)" stroke-linecap="square" stroke-miterlimit="10" pointer-events="none"/><rect x="378.13" y="306" width="193.75" height="30" fill="rgb(255, 255, 255)" stroke="none" pointer-events="none"/><path d="M 378.13 306 M 571.88 306 M 571.88 336 M 378.13 336" fill="none" stroke="rgb(0, 0, 0)" stroke-linecap="square" stroke-miterlimit="10" pointer-events="none"/><g fill="rgb(0, 0, 0)" font-family="Helvetica" pointer-events="none" clip-path="url(#mx-clip-384-306-188-30-0)" font-size="12px"><text x="385.63" y="325.5">Name VARCHAR(32) NOT NULL</text></g><rect x="348.13" y="336" width="223.75" height="30" fill="none" stroke="rgb(0, 0, 0)" pointer-events="none"/><rect x="348.13" y="336" width="30" height="30" fill="rgb(255, 255, 255)" stroke="none" pointer-events="none"/><path d="M 348.13 336 M 378.13 336 M 378.13 366 M 348.13 366" fill="none" stroke="rgb(0, 0, 0)" stroke-linecap="square" stroke-miterlimit="10" pointer-events="none"/><g fill="rgb(0, 0, 0)" font-family="Helvetica" pointer-events="none" clip-path="url(#mx-clip-348-336-30-30-0)" text-anchor="middle" font-size="12px"><text x="362.63" y="355.5">FK</text></g><rect x="378.13" y="336" width="193.75" height="30" fill="rgb(255, 255, 255)" stroke="none" pointer-events="none"/><path d="M 378.13 336 M 571.88 336 M 571.88 366 M 378.13 366" fill="none" stroke="rgb(0, 0, 0)" stroke-linecap="square" stroke-miterlimit="10" pointer-events="none"/><g fill="rgb(0, 0, 0)" font-family="Helvetica" pointer-events="none" clip-path="url(#mx-clip-384-336-188-30-0)" font-size="12px"><text x="385.63" y="355.5">Type INT NOT NULL</text></g><rect x="348.13" y="366" width="223.75" height="30" fill="none" stroke="rgb(0, 0, 0)" pointer-events="none"/><rect x="348.13" y="366" width="30" height="30" fill="rgb(255, 255, 255)" stroke="none" pointer-events="none"/><path d="M 348.13 366 M 378.13 366 M 378.13 396 M 348.13 396" fill="none" stroke="rgb(0, 0, 0)" stroke-linecap="square" stroke-miterlimit="10" pointer-events="none"/><rect x="378.13" y="366" width="193.75" height="30" fill="rgb(255, 255, 255)" stroke="none" pointer-events="none"/><path d="M 378.13 366 M 571.88 366 M 571.88 396 M 378.13 396" fill="none" stroke="rgb(0, 0, 0)" stroke-linecap="square" stroke-miterlimit="10" pointer-events="none"/><g fill="rgb(0, 0, 0)" font-family="Helvetica" pointer-events="none" clip-path="url(#mx-clip-384-366-188-30-0)" font-size="12px"><text x="385.63" y="385.5">ImageURL VARCHAR(32)</text></g><rect x="348.13" y="396" width="223.75" height="30" fill="none" stroke="rgb(0, 0, 0)" pointer-events="none"/><rect x="348.13" y="396" width="30" height="30" fill="rgb(255, 255, 255)" stroke="none" pointer-events="none"/><path d="M 348.13 396 M 378.13 396 M 378.13 426 M 348.13 426" fill="none" stroke="rgb(0, 0, 0)" stroke-linecap="square" stroke-miterlimit="10" pointer-events="none"/><rect x="378.13" y="396" width="193.75" height="30" fill="rgb(255, 255, 255)" stroke="none" pointer-events="none"/><path d="M 378.13 396 M 571.88 396 M 571.88 426 M 378.13 426" fill="none" stroke="rgb(0, 0, 0)" stroke-linecap="square" stroke-miterlimit="10" pointer-events="none"/><g fill="rgb(0, 0, 0)" font-family="Helvetica" pointer-events="none" clip-path="url(#mx-clip-384-396-188-30-0)" font-size="12px"><text x="385.63" y="415.5">Instructions VARCHAR(200)</text></g><path d="M 348.13 351 L 294.1 351 L 294.1 411 L 246.37 411" fill="none" stroke="rgb(0, 0, 0)" stroke-miterlimit="10" pointer-events="none"/><path d="M 241.12 411 L 248.12 407.5 L 246.37 411 L 248.12 414.5 Z" fill="rgb(0, 0, 0)" stroke="rgb(0, 0, 0)" stroke-miterlimit="10" pointer-events="none"/><path d="M 320 30 L 320 0 L 600 0 L 600 30" fill="rgb(255, 255, 255)" stroke="rgb(0, 0, 0)" stroke-miterlimit="10" pointer-events="none"/><path d="M 320 30 L 320 120 L 600 120 L 600 30" fill="none" stroke="rgb(0, 0, 0)" stroke-miterlimit="10" pointer-events="none"/><path d="M 320 30 L 600 30" fill="none" stroke="rgb(0, 0, 0)" stroke-miterlimit="10" pointer-events="none"/><path d="M 350 30 L 350 60 L 350 90 L 350 120" fill="none" stroke="rgb(0, 0, 0)" stroke-miterlimit="10" pointer-events="none"/><g fill="rgb(0, 0, 0)" font-family="Helvetica" font-weight="bold" pointer-events="none" text-anchor="middle" font-size="12px"><text x="459.5" y="19.5">Ingredient</text></g><rect x="320" y="30" width="280" height="30" fill="none" stroke="rgb(0, 0, 0)" pointer-events="none"/><rect x="320" y="30" width="30" height="30" fill="rgb(255, 255, 255)" stroke="none" pointer-events="none"/><path d="M 320 30 M 350 30 M 350 60 M 320 60" fill="none" stroke="rgb(0, 0, 0)" stroke-linecap="square" stroke-miterlimit="10" pointer-events="none"/><g fill="rgb(0, 0, 0)" font-family="Helvetica" font-weight="bold" pointer-events="none" clip-path="url(#mx-clip-320-30-30-30-0)" text-anchor="middle" font-size="12px"><text x="334.5" y="49.5">PK</text></g><rect x="350" y="30" width="250" height="30" fill="rgb(255, 255, 255)" stroke="none" pointer-events="none"/><path d="M 350 30 M 600 30 M 600 60 M 350 60" fill="none" stroke="rgb(0, 0, 0)" stroke-linecap="square" stroke-miterlimit="10" pointer-events="none"/><g fill="rgb(0, 0, 0)" font-family="Helvetica" font-weight="bold" text-decoration="underline" pointer-events="none" clip-path="url(#mx-clip-356-30-244-30-0)" font-size="12px"><text x="357.5" y="49.5">IngredientID INT NOT NULL</text></g><rect x="320" y="60" width="280" height="30" fill="none" stroke="rgb(0, 0, 0)" pointer-events="none"/><rect x="320" y="60" width="30" height="30" fill="rgb(255, 255, 255)" stroke="none" pointer-events="none"/><path d="M 320 60 M 350 60 M 350 90 M 320 90" fill="none" stroke="rgb(0, 0, 0)" stroke-linecap="square" stroke-miterlimit="10" pointer-events="none"/><rect x="350" y="60" width="250" height="30" fill="rgb(255, 255, 255)" stroke="none" pointer-events="none"/><path d="M 350 60 M 600 60 M 600 90 M 350 90" fill="none" stroke="rgb(0, 0, 0)" stroke-linecap="square" stroke-miterlimit="10" pointer-events="none"/><g fill="rgb(0, 0, 0)" font-family="Helvetica" pointer-events="none" clip-path="url(#mx-clip-356-60-244-30-0)" font-size="12px"><text x="357.5" y="79.5">Name VARCHAR(32) NOT NULL</text></g><rect x="320" y="90" width="280" height="30" fill="none" stroke="rgb(0, 0, 0)" pointer-events="none"/><rect x="320" y="90" width="30" height="30" fill="rgb(255, 255, 255)" stroke="none" pointer-events="none"/><path d="M 320 90 M 350 90 M 350 120 M 320 120" fill="none" stroke="rgb(0, 0, 0)" stroke-linecap="square" stroke-miterlimit="10" pointer-events="none"/><rect x="350" y="90" width="250" height="30" fill="rgb(255, 255, 255)" stroke="none" pointer-events="none"/><path d="M 350 90 M 600 90 M 600 120 M 350 120" fill="none" stroke="rgb(0, 0, 0)" stroke-linecap="square" stroke-miterlimit="10" pointer-events="none"/><g fill="rgb(0, 0, 0)" font-family="Helvetica" pointer-events="none" clip-path="url(#mx-clip-356-90-244-30-0)" font-size="12px"><text x="357.5" y="109.5">MeasurementType VARCHAR(16) NOT NULL</text></g><path d="M 0 190 L 0 160 L 226 160 L 226 190" fill="rgb(255, 255, 255)" stroke="rgb(0, 0, 0)" stroke-miterlimit="10" pointer-events="none"/><path d="M 0 190 L 0 280 L 226 280 L 226 190" fill="none" stroke="rgb(0, 0, 0)" stroke-miterlimit="10" pointer-events="none"/><path d="M 0 190 L 226 190" fill="none" stroke="rgb(0, 0, 0)" stroke-miterlimit="10" pointer-events="none"/><path d="M 30 190 L 30 220 L 30 250 L 30 280" fill="none" stroke="rgb(0, 0, 0)" stroke-miterlimit="10" pointer-events="none"/><g fill="rgb(0, 0, 0)" font-family="Helvetica" font-weight="bold" pointer-events="none" text-anchor="middle" font-size="12px"><text x="112.5" y="179.5">Recipe_Ingredient</text></g><rect x="0" y="190" width="226" height="30" fill="none" stroke="rgb(0, 0, 0)" pointer-events="none"/><rect x="0" y="190" width="30" height="30" fill="rgb(255, 255, 255)" stroke="none" pointer-events="none"/><path d="M 0 190 M 30 190 M 30 220 M 0 220" fill="none" stroke="rgb(0, 0, 0)" stroke-linecap="square" stroke-miterlimit="10" pointer-events="none"/><g fill="rgb(0, 0, 0)" font-family="Helvetica" font-weight="bold" pointer-events="none" clip-path="url(#mx-clip-0-190-30-30-0)" text-anchor="middle" font-size="12px"><text x="14.5" y="209.5">FK</text></g><rect x="30" y="190" width="196" height="30" fill="rgb(255, 255, 255)" stroke="none" pointer-events="none"/><path d="M 30 190 M 226 190 M 226 220 M 30 220" fill="none" stroke="rgb(0, 0, 0)" stroke-linecap="square" stroke-miterlimit="10" pointer-events="none"/><g fill="rgb(0, 0, 0)" font-family="Helvetica" font-weight="bold" text-decoration="underline" pointer-events="none" clip-path="url(#mx-clip-36-190-190-30-0)" font-size="12px"><text x="37.5" y="209.5">RecipeID INT NOT NULL</text></g><rect x="0" y="220" width="226" height="30" fill="none" stroke="rgb(0, 0, 0)" pointer-events="none"/><rect x="0" y="220" width="30" height="30" fill="rgb(255, 255, 255)" stroke="none" pointer-events="none"/><path d="M 0 220 M 30 220 M 30 250 M 0 250" fill="none" stroke="rgb(0, 0, 0)" stroke-linecap="square" stroke-miterlimit="10" pointer-events="none"/><g fill="rgb(0, 0, 0)" font-family="Helvetica" font-weight="bold" pointer-events="none" clip-path="url(#mx-clip-0-220-30-30-0)" text-anchor="middle" font-size="12px"><text x="14.5" y="239.5">FK</text></g><rect x="30" y="220" width="196" height="30" fill="rgb(255, 255, 255)" stroke="none" pointer-events="none"/><path d="M 30 220 M 226 220 M 226 250 M 30 250" fill="none" stroke="rgb(0, 0, 0)" stroke-linecap="square" stroke-miterlimit="10" pointer-events="none"/><g fill="rgb(0, 0, 0)" font-family="Helvetica" font-weight="bold" text-decoration="underline" pointer-events="none" clip-path="url(#mx-clip-36-220-190-30-0)" font-size="12px"><text x="37.5" y="239.5">IngredientID INT NOT NULL</text></g><rect x="0" y="250" width="226" height="30" fill="none" stroke="rgb(0, 0, 0)" pointer-events="none"/><rect x="0" y="250" width="30" height="30" fill="rgb(255, 255, 255)" stroke="none" pointer-events="none"/><path d="M 0 250 M 30 250 M 30 280 M 0 280" fill="none" stroke="rgb(0, 0, 0)" stroke-linecap="square" stroke-miterlimit="10" pointer-events="none"/><rect x="30" y="250" width="196" height="30" fill="rgb(255, 255, 255)" stroke="none" pointer-events="none"/><path d="M 30 250 M 226 250 M 226 280 M 30 280" fill="none" stroke="rgb(0, 0, 0)" stroke-linecap="square" stroke-miterlimit="10" pointer-events="none"/><g fill="rgb(0, 0, 0)" font-family="Helvetica" pointer-events="none" clip-path="url(#mx-clip-36-250-190-30-0)" font-size="12px"><text x="37.5" y="269.5">Quantity DOUBLE NOT NULL</text></g><path d="M 226 235 L 287.1 235 L 287.1 291 L 341.76 291" fill="none" stroke="rgb(0, 0, 0)" stroke-miterlimit="10" pointer-events="none"/><path d="M 347.01 291 L 340.01 294.5 L 341.76 291 L 340.01 287.5 Z" fill="rgb(0, 0, 0)" stroke="rgb(0, 0, 0)" stroke-miterlimit="10" pointer-events="none"/><path d="M 226 205 L 273 205 L 273 45 L 313.63 45" fill="none" stroke="rgb(0, 0, 0)" stroke-miterlimit="10" pointer-events="none"/><path d="M 318.88 45 L 311.88 48.5 L 313.63 45 L 311.88 41.5 Z" fill="rgb(0, 0, 0)" stroke="rgb(0, 0, 0)" stroke-miterlimit="10" pointer-events="none"/></g></svg>